<svg viewBox="0 0 24 24" xmlns="http://www.w3.org/2000/svg">
  <path d="m1 5 22 0 0 14-22 0z" fill="#1a237e"></path>
  <path d="m10 5 0 5-9 0 0 4 9 0 0 5 4 0 0-5 9 0 0-4-9 0 0-5z" fill="#ffffff"></path>
  <path d="M1 5L1 7.38 9 12 1 16.62 1 19 2.88 19 12 13.73 21.12 19 23 19 23 16.62 15 12 23 7.38 23 5 21.12 5 12 10.27 2.88 5 1 5z" fill="#ffffff"></path>
  <path d="m11 5 0 6-10 0 0 2L11 13l0 6 2 0 0-6 10 0 0-2L13 11l0-6z" fill="#b71c1c"></path>
  <path d="M22.66 5L14 10 16 10 23 5.96 23 5 22.66 5zM1 5.32L1 6.47 7.11 10 9.11 10 1 5.32zM8.11 14L1 18.1 1 19 1.45 19 10.11 14 8.11 14zM15 14L23 18.62 23 17.46 17 14 15 14z" fill="#b71c1c"></path>
</svg>
