<svg xmlns="http://www.w3.org/2000/svg" viewBox="0 0 12 12">
  <path d="M 8,5.5 C 8.83,5.5 9.495,4.83 9.495,4 9.495,3.17 8.83,2.5 8,2.5 7.17,2.5 6.5,3.17 6.5,4 6.5,4.83 7.17,5.5 8,5.5 Z m -4,0 C 4.83,5.5 5.495,4.83 5.495,4 5.495,3.17 4.83,2.5 4,2.5 3.17,2.5 2.5,3.17 2.5,4 2.5,4.83 3.17,5.5 4,5.5 Z m 0,1 C 2.835,6.5 0.5,7.085 0.5,8.25 l 0,1.25 7,0 0,-1.25 C 7.5,7.085 5.165,6.5 4,6.5 Z m 4,0 C 7.855,6.5 7.69,6.51 7.515,6.525 8.095,6.945 8.5,7.51 8.5,8.25 l 0,1.25 3,0 0,-1.25 C 11.5,7.085 9.165,6.5 8,6.5 Z"/>
</svg>
