<svg xmlns="http://www.w3.org/2000/svg" viewBox="0 0 12 12">
  <path d="M 6,1 C 3.24,1 1,3.24 1,6 1,8.76 3.24,11 6,11 8.76,11 11,8.76 11,6 11,3.24 8.76,1 6,1 Z M 5.5,9.965 C 3.525,9.72 2,8.04 2,6 2,5.69 2.04,5.395 2.105,5.105 L 4.5,7.5 4.5,8 c 0,0.55 0.45,1 1,1 l 0,0.965 z M 8.95,8.695 C 8.82,8.29 8.45,8 8,8 L 7.5,8 7.5,6.5 C 7.5,6.225 7.275,6 7,6 L 4,6 4,5 5,5 C 5.275,5 5.5,4.775 5.5,4.5 l 0,-1 1,0 c 0.55,0 1,-0.45 1,-1 l 0,-0.205 C 8.965,2.89 10,4.325 10,6 10,7.04 9.6,7.985 8.95,8.695 Z"/>
</svg>
