<svg xmlns="http://www.w3.org/2000/svg" viewBox="0 0 24 32">
  <path d="M21.71 26.12A9.74 4.88 0 0 1 11.97 31 9.74 4.88 0 0 1 2.23 26.12a9.74 4.88 0 0 1 9.74-4.88 9.74 4.88 0 0 1 9.74 4.88z" fill="currentColor"/>
  <path d="M22.75 17.14A10.75 10.27 0 0 1 12 27.41 10.75 10.27 0 0 1 1.25 17.14 10.75 10.27 0 0 1 12 6.88 10.75 10.27 0 0 1 22.75 17.14Z"/>
  <path d="m7.21 16.42 9.58 0-1.34 7.87-6.89 0z" fill="currentColor"/>
  <path d="m9.73 18.49 4.54 0-0.64 3.73-3.27 0z"/>
  <path d="m12 1c4.17 0 8.35 6.91 6.26 10.36-2.09 3.45-10.44 3.45-12.52 0C3.65 7.91 7.83 1 12 1Z" fill="currentColor"/>
  <path d="m8.46 9.2c0 0.41 0.09 0.8 0.29 1.12 1.09 1.8 5.43 1.8 6.51 0 0.2-0.33 0.28-0.71 0.29-1.12-1.87 1.19-5.21 1.19-7.09 0z"/>
</svg>
