<svg xmlns="http://www.w3.org/2000/svg" viewBox="0 0 24 32">
  <path d="M21.71 26.12A9.74 4.88 0 0 1 11.97 31 9.74 4.88 0 0 1 2.23 26.12a9.74 4.88 0 0 1 9.74-4.88 9.74 4.88 0 0 1 9.74 4.88z" fill="currentColor"/>
  <path d="M22.75 17.14A10.75 10.27 0 0 1 12 27.41 10.75 10.27 0 0 1 1.25 17.14 10.75 10.27 0 0 1 12 6.88 10.75 10.27 0 0 1 22.75 17.14Z"/>
  <path d="m7.21 16.42 9.58 0-1.34 7.87-6.89 0z" fill="currentColor"/>
  <path d="m9.73 18.49 4.54 0-0.64 3.73-3.27 0z"/>
  <path d="m12 1c4.17 0 8.35 6.91 6.26 10.36-2.09 3.45-10.44 3.45-12.52 0C3.65 7.91 7.83 1 12 1Z" fill="currentColor"/>
  <path d="m8.46 9.2c0 0.41 0.09 0.8 0.29 1.12 1.09 1.8 5.43 1.8 6.51 0 0.2-0.33 0.28-0.71 0.29-1.12-1.87 1.19-5.21 1.19-7.09 0z"/>
  <path fill="#010101" d="M12 0.5C10.07 0.5 8.25 1.77 6.91 3.46 5.63 5.07 4.81 7.08 4.74 8.95 2.23 10.99 0.76 13.97 0.75 17.14l0 0c0 2.32 0.85 4.55 2.29 6.4-0.79 0.76-1.31 1.64-1.31 2.58l0 0c0 1.62 1.28 2.97 3.13 3.9 1.85 0.93 4.35 1.48 7.11 1.48 2.76 0 5.26-0.55 7.11-1.48 1.85-0.93 3.13-2.28 3.13-3.9l0 0c0-0.93-0.51-1.79-1.28-2.55 1.46-1.86 2.32-4.09 2.32-6.43l0 0C23.24 13.97 21.77 10.99 19.26 8.95 19.19 7.07 18.37 5.06 17.09 3.45 15.75 1.77 13.93 0.5 12 0.5Zm0 1c1.48 0 3.09 1.05 4.3 2.58 1.22 1.53 2.02 3.5 2.01 5.13l0 0.25 0.19 0.15c2.37 1.86 3.74 4.62 3.75 7.54 0 2.24-0.81 4.42-2.3 6.16l-0.33 0.38 0.39 0.32c0.82 0.69 1.2 1.41 1.2 2.11 0 1.08-0.9 2.17-2.58 3C16.96 29.96 14.59 30.5 11.97 30.5 9.35 30.5 6.98 29.96 5.31 29.12 3.64 28.29 2.73 27.2 2.73 26.12l0 0c0-0.71 0.39-1.44 1.23-2.14l0.39-0.32-0.33-0.39C2.55 21.53 1.75 19.37 1.75 17.14l0 0c0.01-2.92 1.38-5.68 3.75-7.53L5.69 9.46 5.69 9.21C5.68 7.58 6.48 5.6 7.7 4.08 8.91 2.55 10.52 1.5 12 1.5Z"/>
</svg>
