<svg xmlns="http://www.w3.org/2000/svg" viewBox="0 0 12 12">
  <path d="M 9.715,6.49 C 9.735,6.33 9.75,6.17 9.75,6 9.75,5.83 9.735,5.67 9.715,5.51 L 10.77,4.685 c 0.095,-0.075 0.12,-0.21 0.06,-0.32 l -1,-1.73 C 9.77,2.525 9.635,2.485 9.525,2.525 L 8.28,3.025 C 8.02,2.825 7.74,2.66 7.435,2.535 L 7.245,1.21 C 7.23,1.09 7.125,1 7,1 L 5,1 C 4.875,1 4.77,1.09 4.755,1.21 L 4.565,2.535 C 4.26,2.66 3.98,2.83 3.72,3.025 L 2.475,2.525 C 2.36,2.48 2.23,2.525 2.17,2.635 l -1,1.73 C 1.105,4.475 1.135,4.61 1.23,4.685 L 2.285,5.51 C 2.265,5.67 2.25,5.835 2.25,6 c 0,0.165 0.015,0.33 0.035,0.49 L 1.23,7.315 C 1.135,7.39 1.11,7.525 1.17,7.635 l 1,1.73 c 0.06,0.11 0.195,0.15 0.305,0.11 l 1.245,-0.5 c 0.26,0.2 0.54,0.365 0.845,0.49 l 0.19,1.325 C 4.77,10.91 4.875,11 5,11 l 2,0 c 0.125,0 0.23,-0.09 0.245,-0.21 L 7.435,9.465 C 7.74,9.34 8.02,9.17 8.28,8.975 l 1.245,0.5 c 0.115,0.045 0.245,0 0.305,-0.11 l 1,-1.73 C 10.89,7.525 10.865,7.39 10.77,7.315 L 9.715,6.49 Z M 6,7.75 C 5.035,7.75 4.25,6.965 4.25,6 4.25,5.035 5.035,4.25 6,4.25 6.965,4.25 7.75,5.035 7.75,6 7.75,6.965 6.965,7.75 6,7.75 Z"/>
</svg>
